<svg id="Calque_1" data-name="Calque 1" xmlns="http://www.w3.org/2000/svg" viewBox="0 0 108 108"><defs><style>.cls-1{fill:#fff;}</style></defs><title>icons</title><path class="cls-1" d="M43.56,62.75H66.1a1.16,1.16,0,0,0,1.16-1.16V53.14a1.16,1.16,0,0,0-.34-0.82,17.09,17.09,0,0,0-12.09-4.56,17.09,17.09,0,0,0-12.09,4.56,1.16,1.16,0,0,0-.34.82v8.45A1.16,1.16,0,0,0,43.56,62.75Zm1.16-9.12a15,15,0,0,1,10.11-3.56,15,15,0,0,1,10.11,3.56v6.8H44.72v-6.8Z"/><path class="cls-1" d="M54.83,46.69a7.64,7.64,0,1,0-7.64-7.64A7.65,7.65,0,0,0,54.83,46.69Zm0-13a5.32,5.32,0,1,1-5.32,5.32A5.32,5.32,0,0,1,54.83,33.73Z"/><rect class="cls-1" x="37.42" y="72.04" width="34.82" height="2.32"/><rect class="cls-1" x="37.42" y="77.84" width="34.82" height="2.32"/><rect class="cls-1" x="37.42" y="66.23" width="34.82" height="2.32"/><path class="cls-1" d="M28.71,88.87H80.95a1.16,1.16,0,0,0,1.16-1.16V23.87a1.16,1.16,0,0,0-1.16-1.16H61.79V18.06a1.16,1.16,0,0,0-1.16-1.16H49a1.16,1.16,0,0,0-1.16,1.16v4.64H28.71a1.16,1.16,0,0,0-1.16,1.16V87.71A1.16,1.16,0,0,0,28.71,88.87ZM50.19,19.22h9.29v3.48H50.19V19.22ZM29.87,25H79.78V86.55H29.87V25Z"/></svg>