<?xml version="1.0" encoding="utf-8"?>
<!-- Generator: Adobe Illustrator 19.0.1, SVG Export Plug-In . SVG Version: 6.00 Build 0)  -->
<svg version="1.1" id="Layer_1" xmlns="http://www.w3.org/2000/svg" xmlns:xlink="http://www.w3.org/1999/xlink" x="0px" y="0px"
	 viewBox="0 0 261.8 389.7" style="enable-background:new 0 0 261.8 389.7;" xml:space="preserve">
<style type="text/css">
	.st0{opacity:0.1;clip-path:url(#SVGID_2_);}
	.st1{fill:#FFFFFF;}
</style>
<g>
	<defs>
		<rect id="SVGID_1_" width="261.8" height="389.7"/>
	</defs>
	<clipPath id="SVGID_2_">
		<use xlink:href="#SVGID_1_"  style="overflow:visible;"/>
	</clipPath>
	<g class="st0">
		<g>
			<path class="st1" d="M30.6-44.9C4.3-44.2-21.1-28.3-35.2-0.2c-18.8,37.5-11.3,84,15.7,111.5c0.1,0,0.1,0,0.1,0.1
				c2.6,2.6,5.3,5.1,8.2,7.3c1.4,1.2,2.9,2.2,4.5,3.2c4.5,3,9.2,5.3,13.9,7.2c1,0.4,2.1,0.8,3.2,1.2c2.2,0.7,4.4,1.3,6.6,1.9
				c2.3,0.5,4.6,0.9,6.8,1.2c0.8,0.1,1.7,0.2,2.5,0.2c0.7,0.1,1.4,0.1,2.1,0.2c0.6,0,1.1,0.1,1.7,0.1c0.2,0,0.4,0,0.6,0
				c2.3,0,4.6,0,7-0.2c1.1-0.1,2.3-0.2,3.4-0.3c0.7-0.1,1.3-0.2,2-0.3c0.7-0.1,1.4-0.2,2-0.3c2.5-0.5,4.9-1.1,7.3-1.8
				c0.8-0.2,1.5-0.5,2.3-0.8c0.4-0.2,0.8-0.3,1.2-0.5c1.2-0.4,2.3-0.9,3.5-1.4c0.6-0.2,1.3-0.6,1.9-0.8c0.5-0.2,1-0.6,1.6-0.8
				c1-0.5,2-1,3-1.6c0.1-0.1,0.2-0.1,0.3-0.2c0.6-0.3,1-0.6,1.6-0.9c0.1-0.1,0.2-0.2,0.3-0.2c1-0.6,1.9-1.2,2.9-1.8
				c1.1-0.7,2.2-1.5,3.2-2.3c1.1-0.8,2.1-1.6,3.1-2.5c1-0.8,1.9-1.5,2.8-2.3c0.1-0.1,0.2-0.2,0.3-0.3c0.6-0.5,1.1-1,1.6-1.4
				c0.4-0.4,0.9-0.9,1.3-1.3c0.6-0.6,1-1.1,1.6-1.7c0.9-1,1.9-2.1,2.8-3.1c0.8-0.9,1.5-1.8,2.2-2.7c0.1-0.2,0.3-0.3,0.4-0.6
				c0.3-0.3,0.6-0.6,0.8-1c0.6-0.8,1.1-1.6,1.7-2.4c0.2-0.2,0.4-0.6,0.6-0.8c0.1-0.2,0.2-0.4,0.3-0.6c2.1-3.2,4.1-6.4,5.8-9.9
				c21.5-42.7,8.7-97.5-28.5-122.2C58.4-41.4,44.4-45.3,30.6-44.9L30.6-44.9z M30.7-40.5c13.1-0.3,26.4,3.3,38.6,11.4
				C104.7-5.6,116.8,46.3,96.4,87c-1.3,2.5-2.8,5-4.2,7.4c-13-22-35-36.5-59.9-36.5s-46.9,14.5-59.9,36.6
				C-44.2,68.1-46.9,32-31.8,2.1C-18.4-24.6,5.7-39.8,30.7-40.5L30.7-40.5z M32.3-30.5c-17.2,0-28,12.8-28,28.3
				c0,10.6,2.1,23.5,6.5,34.1c4.4,10.6,11.5,19.1,21.5,19.4c0.1,0,0.1,0,0.1,0c9.9-0.3,17-8.8,21.5-19.4c4.5-10.5,6.6-23.4,6.6-34.1
				C60.4-17.7,49.5-30.5,32.3-30.5L32.3-30.5z M32.3-26.1c15.6,0,24.2,10.6,24.2,23.8c0,9.9-2,22.3-6.1,32.1
				c-4.1,9.7-9.9,16.6-17.9,17c-0.1,0-0.1,0-0.1,0c-8-0.3-13.9-7.2-17.9-17S8.1,7.7,8.1-2.2C8.1-15.4,16.8-26.1,32.3-26.1L32.3-26.1
				z M32.3,62.3c24.1,0,45.1,14.3,57.3,35.7c-3.4,4.9-7.4,9.3-11.8,13.4c-0.9,0.8-1.8,1.5-2.7,2.3c0,0,0,0-0.1,0.1
				c-0.3,0.2-0.7,0.6-1,0.8c-0.6,0.5-1.2,0.9-1.7,1.3c-0.4,0.3-0.9,0.6-1.3,1c-0.6,0.3-1.1,0.8-1.7,1.1c-0.4,0.3-0.9,0.6-1.4,1
				c-0.6,0.3-1.1,0.6-1.7,1c-0.5,0.3-1,0.6-1.5,1c-0.5,0.2-1,0.6-1.5,0.8c-0.6,0.3-1.1,0.6-1.7,0.9c-0.8,0.4-1.7,0.8-2.5,1.2
				c-0.2,0.1-0.5,0.2-0.8,0.3c-0.4,0.2-0.8,0.3-1.2,0.6c-0.7,0.2-1.4,0.6-2.1,0.8c-0.3,0.2-0.7,0.2-1,0.4c-0.8,0.2-1.5,0.5-2.3,0.7
				c-1.1,0.3-2.2,0.7-3.4,1c0,0-0.1-0.1-0.1,0c-0.2,0-0.4,0.1-0.6,0.1c-1,0.2-1.9,0.5-3,0.6c-0.1,0-0.1,0.1-0.2,0.1
				c-1.3,0.2-2.6,0.4-3.9,0.6c-0.8,0.2-1.7,0.2-2.6,0.3c-1,0.1-2.1,0.2-3.2,0.2c-1.1,0.1-2.2,0.1-3.2,0c-1.1,0-2.1,0-3.2-0.1
				c-1-0.1-2.1-0.2-3.2-0.3c-1-0.2-2.1-0.2-3.2-0.4C3.8,125.6-13,114.9-25,98C-12.8,76.6,8.3,62.3,32.3,62.3L32.3,62.3z"/>
		</g>
	</g>
</g>
</svg>
