<svg id="Calque_1" data-name="Calque 1" xmlns="http://www.w3.org/2000/svg" viewBox="0 0 108 108"><defs><style>.cls-1{fill:#fff;}</style></defs><title>icons</title><path class="cls-1" d="M76.26,61.81a11.35,11.35,0,0,1-.4-3V54.22a7.63,7.63,0,1,0-2.32,0V58.8a13.21,13.21,0,0,0,.5,3.62l4,14.53A11.2,11.2,0,0,1,67.27,91.1h-12a10.92,10.92,0,0,1-9.92-15.42,13,13,0,0,0,1.19-5.47V68A15.62,15.62,0,0,0,61.63,55.58L63.92,44.3a2.3,2.3,0,0,0-.76-2.22l2-9.88a9.6,9.6,0,0,0-2-7.93A9.43,9.43,0,0,0,58,21a2.6,2.6,0,1,0-.27,2.35,7.14,7.14,0,0,1,5.17,8.32l-2,9.88a2.34,2.34,0,0,0-1.56,1.76L57,54.62a10.9,10.9,0,0,1-10.65,8.69H44.29a10.9,10.9,0,0,1-10.65-8.69L31.35,43.34a2.34,2.34,0,0,0-1.56-1.76l-2-9.88a7.09,7.09,0,0,1,1.49-6,7,7,0,0,1,3.45-2.29,2.56,2.56,0,0,0,2.12,1.09,2.59,2.59,0,1,0-2.45-3.42,9.3,9.3,0,0,0-4.91,3.15,9.49,9.49,0,0,0-2,7.93l2,9.88a2.37,2.37,0,0,0-.76,2.22l2.29,11.28A15.61,15.61,0,0,0,44.26,68v2.12a11.13,11.13,0,0,1-1,4.51A13.25,13.25,0,0,0,55.37,93.42h12a13.51,13.51,0,0,0,13-17.15ZM69.39,46.69a5.27,5.27,0,1,1,6.43,5.14V48.51a2.19,2.19,0,1,0-3.38-1.82,2.15,2.15,0,0,0,1,1.82v3.32A5.28,5.28,0,0,1,69.39,46.69Z"/></svg>