<?xml version="1.0" encoding="utf-8"?>
<!-- Generator: Adobe Illustrator 19.0.1, SVG Export Plug-In . SVG Version: 6.00 Build 0)  -->
<svg version="1.1" id="Layer_1" xmlns="http://www.w3.org/2000/svg" xmlns:xlink="http://www.w3.org/1999/xlink" x="0px" y="0px"
	 viewBox="0 0 80.2 81.3" style="enable-background:new 0 0 80.2 81.3;" xml:space="preserve">
<style type="text/css">
	.st0{fill:#2C2F31;}
</style>
<g>
	<path class="st0" d="M66.3,71.8H13.8c-1.4,0-2.6-1.1-2.6-2.6V16.7c0-1.4,1.1-2.6,2.6-2.6h52.5c1.4,0,2.6,1.1,2.6,2.6v52.5
		C68.9,70.6,67.7,71.8,66.3,71.8z M13.8,15.7c-0.6,0-1.1,0.5-1.1,1.1v52.5c0,0.6,0.5,1.1,1.1,1.1h52.5c0.6,0,1.1-0.5,1.1-1.1V16.7
		c0-0.6-0.5-1.1-1.1-1.1H13.8z"/>
	<rect x="12" y="27.4" class="st0" width="56.1" height="1.5"/>
	<g>
		<path class="st0" d="M18.9,20.2c-0.5,0-0.8-0.3-0.8-0.8v-9.1c0-0.5,0.3-0.8,0.8-0.8s0.8,0.3,0.8,0.8v9.2
			C19.7,19.9,19.4,20.2,18.9,20.2z"/>
		<path class="st0" d="M27.4,20.2c-0.5,0-0.8-0.3-0.8-0.8v-9.1c0-0.5,0.3-0.8,0.8-0.8c0.5,0,0.8,0.3,0.8,0.8v9.2
			C28.1,19.9,27.8,20.2,27.4,20.2z"/>
		<path class="st0" d="M35.8,20.2c-0.5,0-0.8-0.3-0.8-0.8v-9.1c0-0.5,0.3-0.8,0.8-0.8s0.8,0.3,0.8,0.8v9.2
			C36.6,19.9,36.3,20.2,35.8,20.2z"/>
		<path class="st0" d="M44.2,20.2c-0.5,0-0.8-0.3-0.8-0.8v-9.1c0-0.5,0.3-0.8,0.8-0.8c0.5,0,0.8,0.3,0.8,0.8v9.2
			C45,19.9,44.7,20.2,44.2,20.2z"/>
		<path class="st0" d="M52.7,20.2c-0.5,0-0.8-0.3-0.8-0.8v-9.1c0-0.5,0.3-0.8,0.8-0.8s0.8,0.3,0.8,0.8v9.2
			C53.4,19.9,53.1,20.2,52.7,20.2z"/>
		<path class="st0" d="M61.1,20.2c-0.5,0-0.8-0.3-0.8-0.8v-9.1c0-0.5,0.3-0.8,0.8-0.8s0.8,0.3,0.8,0.8v9.2
			C61.9,19.9,61.6,20.2,61.1,20.2z"/>
	</g>
	<g>
		<path class="st0" d="M24.7,55l2.9-0.4c0.3,1.7,0.9,2.8,1.7,3.6c0.8,0.8,1.8,1.1,3,1.1c1.4,0,2.5-0.5,3.5-1.4
			c0.9-1,1.4-2.1,1.4-3.6c0-1.4-0.5-2.4-1.3-3.3c-0.9-0.8-2-1.3-3.3-1.3c-0.5,0-1.2,0.1-2.1,0.3l0.3-2.6c0.2,0,0.4,0,0.5,0
			c1.2,0,2.4-0.3,3.3-1c1-0.7,1.5-1.7,1.5-3c0-1.1-0.4-2-1.1-2.7c-0.8-0.7-1.7-1.1-2.8-1.1s-2.1,0.4-2.8,1.1
			c-0.8,0.7-1.2,1.7-1.4,3.2l-3-0.3c0.4-2,1.1-3.5,2.4-4.6c1.3-1.1,2.8-1.6,4.7-1.6c1.3,0,2.5,0.3,3.6,0.8c1.1,0.5,1.9,1.3,2.5,2.3
			c0.6,1,0.8,2,0.8,3c0,1.1-0.3,2-0.8,2.8c-0.5,0.8-1.4,1.5-2.4,2c1.4,0.3,2.5,1,3.3,2.1c0.8,1,1.1,2.3,1.1,3.8
			c0,2.1-0.8,3.8-2.3,5.2c-1.5,1.4-3.4,2.1-5.8,2.1c-2.1,0-3.8-0.6-5.2-1.9S24.9,57,24.7,55z"/>
		<path class="st0" d="M54.2,61.3h-2.9V42.7c-0.7,0.7-1.6,1.4-2.7,2c-1.1,0.7-2.1,1.1-3,1.5v-2.8c1.6-0.8,3-1.7,4.3-2.8
			c1.2-1.1,2.1-2.1,2.6-3.2h1.9L54.2,61.3L54.2,61.3z"/>
	</g>
</g>
</svg>
