<svg id="Calque_1" data-name="Calque 1" xmlns="http://www.w3.org/2000/svg" viewBox="0 0 108 108"><defs><style>.cls-1{fill:#fff;}</style></defs><title>icons</title><path class="cls-1" d="M66.37,39.47c-4.17.71-10.69,1.06-19.39,1.06a137.6,137.6,0,0,1-18.58-.94,22.18,22.18,0,0,1-3.86-.85,20.83,20.83,0,0,0-.61,4.37s0.44,2.53,23.45,2.53,23.45-2.53,23.45-2.53a20.82,20.82,0,0,0-.69-4.65A15.89,15.89,0,0,1,66.37,39.47Z"/><path class="cls-1" d="M75,16.15H53.4c-4.83,0-7.86,3.8-8.89,6a3.47,3.47,0,0,0-.17.48C32,23.65,27.12,30.9,25.19,36.5a19.47,19.47,0,0,0,3.55.78A135.58,135.58,0,0,0,47,38.19c8.57,0,15-.35,19-1a10.48,10.48,0,0,0,3.46-1c-1.82-5-6.06-11.15-15.81-13H75c1.57,0,2.06.3,2.06,2.16v63a3.5,3.5,0,0,0,7,0v-63C84.08,19.75,80.52,16.15,75,16.15Z"/><path class="cls-1" d="M28,60a1.17,1.17,0,0,1-1.17-1.17,2.93,2.93,0,0,1,.88-2.1,0.67,0.67,0,0,0,0-1.11,2.95,2.95,0,0,1,0-4.19A0.69,0.69,0,0,0,28,50.91a1.17,1.17,0,0,1,2.33,0,2.93,2.93,0,0,1-.87,2.1,0.67,0.67,0,0,0,0,1.1,2.95,2.95,0,0,1,0,4.19,0.69,0.69,0,0,0-.29.55A1.17,1.17,0,0,1,28,60Z"/><path class="cls-1" d="M37.16,60A1.17,1.17,0,0,1,36,58.86a2.93,2.93,0,0,1,.88-2.1,0.67,0.67,0,0,0,0-1.11,2.95,2.95,0,0,1,0-4.19,0.69,0.69,0,0,0,.29-0.55,1.17,1.17,0,0,1,2.33,0,2.93,2.93,0,0,1-.88,2.1,0.67,0.67,0,0,0,0,1.1,2.95,2.95,0,0,1,0,4.19,0.69,0.69,0,0,0-.29.55A1.16,1.16,0,0,1,37.16,60Z"/><path class="cls-1" d="M46.33,60a1.17,1.17,0,0,1-1.17-1.17,2.93,2.93,0,0,1,.88-2.1,0.67,0.67,0,0,0,0-1.11,2.95,2.95,0,0,1,0-4.19,0.69,0.69,0,0,0,.29-0.55,1.17,1.17,0,0,1,2.33,0,2.93,2.93,0,0,1-.87,2.1,0.67,0.67,0,0,0,0,1.1,2.95,2.95,0,0,1,0,4.19,0.69,0.69,0,0,0-.29.55A1.17,1.17,0,0,1,46.33,60Z"/><path class="cls-1" d="M55.5,60a1.17,1.17,0,0,1-1.17-1.17,2.93,2.93,0,0,1,.88-2.1,0.67,0.67,0,0,0,0-1.11,2.95,2.95,0,0,1,0-4.19,0.69,0.69,0,0,0,.29-0.55,1.17,1.17,0,0,1,2.33,0A2.93,2.93,0,0,1,57,53a0.67,0.67,0,0,0,0,1.1,2.95,2.95,0,0,1,0,4.19,0.69,0.69,0,0,0-.29.55A1.16,1.16,0,0,1,55.5,60Z"/><path class="cls-1" d="M64.66,60a1.17,1.17,0,0,1-1.17-1.17,2.93,2.93,0,0,1,.88-2.1,0.67,0.67,0,0,0,0-1.11,2.95,2.95,0,0,1,0-4.19,0.69,0.69,0,0,0,.29-0.55,1.17,1.17,0,0,1,2.33,0,2.93,2.93,0,0,1-.87,2.1,0.67,0.67,0,0,0,0,1.1,2.95,2.95,0,0,1,0,4.19,0.69,0.69,0,0,0-.29.55A1.17,1.17,0,0,1,64.66,60Z"/><path class="cls-1" d="M28,74.43a1.17,1.17,0,0,1-1.17-1.17,2.92,2.92,0,0,1,.88-2.1,0.67,0.67,0,0,0,0-1.11,2.95,2.95,0,0,1,0-4.19A0.69,0.69,0,0,0,28,65.32a1.17,1.17,0,0,1,2.33,0,2.93,2.93,0,0,1-.87,2.1,0.67,0.67,0,0,0,0,1.1,2.95,2.95,0,0,1,0,4.19,0.69,0.69,0,0,0-.29.55A1.17,1.17,0,0,1,28,74.43Z"/><path class="cls-1" d="M37.16,74.43A1.17,1.17,0,0,1,36,73.27a2.92,2.92,0,0,1,.88-2.1,0.67,0.67,0,0,0,0-1.11,2.95,2.95,0,0,1,0-4.19,0.69,0.69,0,0,0,.29-0.55,1.17,1.17,0,0,1,2.33,0,2.93,2.93,0,0,1-.88,2.1,0.67,0.67,0,0,0,0,1.1,2.95,2.95,0,0,1,0,4.19,0.69,0.69,0,0,0-.29.55A1.16,1.16,0,0,1,37.16,74.43Z"/><path class="cls-1" d="M46.33,74.43a1.17,1.17,0,0,1-1.17-1.17,2.93,2.93,0,0,1,.88-2.1,0.67,0.67,0,0,0,0-1.11,2.95,2.95,0,0,1,0-4.19,0.69,0.69,0,0,0,.29-0.55,1.17,1.17,0,0,1,2.33,0,2.93,2.93,0,0,1-.87,2.1,0.67,0.67,0,0,0,0,1.1,2.95,2.95,0,0,1,0,4.19,0.69,0.69,0,0,0-.29.55A1.17,1.17,0,0,1,46.33,74.43Z"/><path class="cls-1" d="M55.5,74.43a1.17,1.17,0,0,1-1.17-1.17,2.92,2.92,0,0,1,.88-2.1,0.67,0.67,0,0,0,0-1.11,2.95,2.95,0,0,1,0-4.19,0.69,0.69,0,0,0,.29-0.55,1.17,1.17,0,0,1,2.33,0,2.93,2.93,0,0,1-.88,2.1,0.67,0.67,0,0,0,0,1.1,2.95,2.95,0,0,1,0,4.19,0.69,0.69,0,0,0-.29.55A1.16,1.16,0,0,1,55.5,74.43Z"/><path class="cls-1" d="M64.66,74.43a1.17,1.17,0,0,1-1.17-1.17,2.92,2.92,0,0,1,.88-2.1,0.67,0.67,0,0,0,0-1.11,2.95,2.95,0,0,1,0-4.19,0.69,0.69,0,0,0,.29-0.55,1.17,1.17,0,0,1,2.33,0,2.93,2.93,0,0,1-.87,2.1,0.67,0.67,0,0,0,0,1.1,2.95,2.95,0,0,1,0,4.19,0.69,0.69,0,0,0-.29.55A1.17,1.17,0,0,1,64.66,74.43Z"/><path class="cls-1" d="M28,88.84a1.17,1.17,0,0,1-1.17-1.17,2.92,2.92,0,0,1,.88-2.1,0.67,0.67,0,0,0,0-1.11,2.95,2.95,0,0,1,0-4.19A0.69,0.69,0,0,0,28,79.73a1.17,1.17,0,1,1,2.33,0,2.93,2.93,0,0,1-.87,2.1,0.67,0.67,0,0,0,0,1.1,2.95,2.95,0,0,1,0,4.19,0.69,0.69,0,0,0-.29.55A1.17,1.17,0,0,1,28,88.84Z"/><path class="cls-1" d="M37.16,88.84A1.17,1.17,0,0,1,36,87.67a2.92,2.92,0,0,1,.88-2.1,0.67,0.67,0,0,0,0-1.11,2.95,2.95,0,0,1,0-4.19,0.69,0.69,0,0,0,.29-0.55,1.17,1.17,0,1,1,2.33,0,2.92,2.92,0,0,1-.88,2.1,0.67,0.67,0,0,0,0,1.1,2.95,2.95,0,0,1,0,4.19,0.69,0.69,0,0,0-.29.55A1.17,1.17,0,0,1,37.16,88.84Z"/><path class="cls-1" d="M46.33,88.84a1.17,1.17,0,0,1-1.17-1.17,2.93,2.93,0,0,1,.88-2.1,0.67,0.67,0,0,0,0-1.11,2.95,2.95,0,0,1,0-4.19,0.69,0.69,0,0,0,.29-0.55,1.17,1.17,0,1,1,2.33,0,2.93,2.93,0,0,1-.87,2.1,0.67,0.67,0,0,0,0,1.1,2.95,2.95,0,0,1,0,4.19,0.69,0.69,0,0,0-.29.55A1.17,1.17,0,0,1,46.33,88.84Z"/><path class="cls-1" d="M55.5,88.84a1.17,1.17,0,0,1-1.17-1.17,2.92,2.92,0,0,1,.88-2.1,0.67,0.67,0,0,0,0-1.11,2.95,2.95,0,0,1,0-4.19,0.69,0.69,0,0,0,.29-0.55,1.17,1.17,0,0,1,2.33,0,2.92,2.92,0,0,1-.88,2.1,0.67,0.67,0,0,0,0,1.1,2.95,2.95,0,0,1,0,4.19,0.69,0.69,0,0,0-.29.55A1.17,1.17,0,0,1,55.5,88.84Z"/><path class="cls-1" d="M64.66,88.84a1.17,1.17,0,0,1-1.17-1.17,2.92,2.92,0,0,1,.88-2.1,0.67,0.67,0,0,0,0-1.11,2.95,2.95,0,0,1,0-4.19,0.69,0.69,0,0,0,.29-0.55,1.17,1.17,0,1,1,2.33,0,2.93,2.93,0,0,1-.87,2.1,0.67,0.67,0,0,0,0,1.1,2.95,2.95,0,0,1,0,4.19,0.69,0.69,0,0,0-.29.55A1.17,1.17,0,0,1,64.66,88.84Z"/></svg>