<svg id="Calque_1" data-name="Calque 1" xmlns="http://www.w3.org/2000/svg" viewBox="0 0 108 108"><defs><style>.cls-1{fill:#fff;}</style></defs><title>icons</title><path class="cls-1" d="M55.63,83.74H41.34a8.36,8.36,0,0,1-6.19-3.21,3.35,3.35,0,0,1-.89-2.31L34.2,59a1.56,1.56,0,0,1,1.42-1.66h0A1.55,1.55,0,0,1,37.06,59L37.12,78.1a5.72,5.72,0,0,0,4.23,2.34H55.63A1.67,1.67,0,0,1,55.63,83.74Z"/><path class="cls-1" d="M35.63,40.79a1.55,1.55,0,0,1-1.43-1.65V22.62c0-4.55,3.21-8.26,7.15-8.26h34.3A1.55,1.55,0,0,1,77.07,16a1.55,1.55,0,0,1-1.43,1.65H41.34c-2.36,0-4.29,2.22-4.29,5V39.14A1.55,1.55,0,0,1,35.63,40.79Z"/><path class="cls-1" d="M61.35,60.61A1.55,1.55,0,0,1,59.92,59V52.36a1.44,1.44,0,1,1,2.86,0V59A1.55,1.55,0,0,1,61.35,60.61Z"/><path class="cls-1" d="M49.92,50.7H21.34a1.67,1.67,0,0,1,0-3.3H49.92A1.67,1.67,0,0,1,49.92,50.7Z"/><path class="cls-1" d="M41.34,60.61a1.34,1.34,0,0,1-1-.48,1.84,1.84,0,0,1,0-2.34l7.56-8.74-7.56-8.75a1.84,1.84,0,0,1,0-2.34,1.3,1.3,0,0,1,2,0l8.57,9.91a1.84,1.84,0,0,1,0,2.34l-8.57,9.91A1.33,1.33,0,0,1,41.34,60.61Z"/><path class="cls-1" d="M60.38,93.65c-3.4,0-6.17-3.2-6.17-7.13v-57A7.23,7.23,0,0,1,57.95,23l16.24-8a5.43,5.43,0,0,1,2.43-.57c3.4,0,6.17,3.2,6.17,7.13v57A7.23,7.23,0,0,1,79,85l-16.24,8A5.43,5.43,0,0,1,60.38,93.65Zm16.24-76a2.87,2.87,0,0,0-1.3.31L59.07,26a3.88,3.88,0,0,0-2,3.52v57a3.6,3.6,0,0,0,3.31,3.83,2.87,2.87,0,0,0,1.3-.31l16.24-8a3.88,3.88,0,0,0,2-3.52v-57A3.6,3.6,0,0,0,76.61,17.67Z"/></svg>