<svg id="Calque_1" data-name="Calque 1" xmlns="http://www.w3.org/2000/svg" viewBox="0 0 108 108"><defs><style>.cls-1{fill:#fff;}</style></defs><title>icons</title><path class="cls-1" d="M72.5,18.53L65.84,30.07a4.91,4.91,0,0,0-.92-0.29,1.94,1.94,0,0,0-2.29.77L61.24,33c-0.45-.17-0.92-0.33-1.4-0.49-1.33-.42-2.77-0.28-3.47.93L33,74l-4.39-2.54-0.79,1.37,6.71,3.87-4.41,7.64-3.23-1.86-1.59,2.76,0.42,0.43a28,28,0,0,0,13.62,7.86l0.58,0.14,1.59-2.76L38.12,89l3-5.2,0.09-.15,1.32-2.29,6.71,3.87L50,83.83l-4.39-2.54,5.09-8.82-7.17-4.14L44.34,67l7.17,4.14L50.8,72.34l3.9-6.76-7.17-4.14,0.79-1.37,7.17,4.14L55,65l3.59-6.22-7.17-4.14,0.79-1.37,7.17,4.14,3.06-5.3L55.3,48l0.79-1.37,7.17,4.14-0.64,1.11,6.43-11.14c0.7-1.21.05-2.47-.93-3.47-0.35-.35-0.72-0.68-1.1-1l1.37-2.37a1.93,1.93,0,0,0-.52-2.41,8.32,8.32,0,0,0-.68-0.59l6.67-11.56ZM66.43,45.28l-7.17-4.14L60,39.76l7.17,4.14Z"/><path class="cls-1" d="M81.48,12.15c-0.93,0-4.75.81-7.38,5.37,5.21-3.3,6.47,1,9.12.73C86.86,17.94,86.07,12.15,81.48,12.15Z"/></svg>