<svg id="Calque_1" data-name="Calque 1" xmlns="http://www.w3.org/2000/svg" viewBox="0 0 108 108"><defs><style>.cls-1{fill:#fff;}</style></defs><title>icons</title><path class="cls-1" d="M83.8,27.56a3.1,3.1,0,0,1,1.68.53c2,1.36,1.29,5.38,1.29,7H85V30.51L84.93,30l-0.65-.64L83.8,29.3H45.38V27.56H83.8Z"/><path class="cls-1" d="M39.31,18.69c3.71,0.45,3,4.09,3,6.9H40.53V21.64l-0.1-.47-0.65-.64-0.48-.09H21.51L21,20.53l-0.65.64-0.1.47V29.3H15.58l-0.48.09L14.45,30l-0.1.47v47.3l0.1,0.47,0.65,0.64c1.48,0.3.31,0.1,3.55,0.1v1.75H15.58c-1.78-.18-2.4-1.44-3-3V30.51c0.36-3.25,3.39-3,5.93-3V21.64c0.14-1.72,1.45-2.53,3-3h17.8Z"/><path class="cls-1" d="M88.11,33.59A3,3,0,0,1,91,36a2.12,2.12,0,0,1,.06.6c0,1.23,0,2.46,0,3.7H89.33v-3.7l-0.1-.47-0.65-.64-0.48-.09H49.69V33.59H88.11Z"/><path class="cls-1" d="M43.62,24.72c4.06,0.37,3,5,3,7.76H44.84v-4.8l-0.1-.47-0.65-.64-0.48-.1H25.82l-0.48.1-0.65.64-0.1.47v7.66H19.89l-0.48.09-0.65.64-0.09.47v47.3l0.1,0.47L19.41,85a14.64,14.64,0,0,0,3.55.1v1.75H19.89c-1.72-.13-2.54-1.44-3-3V36.55c0.32-3.33,3.36-3,5.93-3,0-1,0-4.9,0-5.91a2.52,2.52,0,0,1,.55-1.61,4.15,4.15,0,0,1,2.41-1.35h17.8Z"/><path class="cls-1" d="M47.93,30.76a3,3,0,0,1,3,3v5.91H92.42a3,3,0,0,1,3,3v47.3a3,3,0,0,1-3,3H24.2a3.16,3.16,0,0,1-3-3V42.58a3,3,0,0,1,3-3h3V33.72a3.16,3.16,0,0,1,3-3h17.8Zm-17.8,1.75-0.48.1L29,33.25l-0.1.47v7.66H24.2A1.21,1.21,0,0,0,23,42.58v47.3l0.1,0.47L23.72,91l0.48,0.1H92.42a1.21,1.21,0,0,0,1.22-1.21V42.58a1.21,1.21,0,0,0-1.22-1.21H49.15V33.72a1.21,1.21,0,0,0-1.22-1.21H30.13Z"/><path class="cls-1" d="M60.61,70.84H56.08A0.85,0.85,0,0,1,55.22,70V65.62H50.86A0.85,0.85,0,0,1,50,64.77V60.24a0.85,0.85,0,0,1,.86-0.86h4.36V55a0.85,0.85,0,0,1,.86-0.86h4.53a0.85,0.85,0,0,1,.86.86v4.36h4.36a0.85,0.85,0,0,1,.86.86v4.53a0.85,0.85,0,0,1-.86.86H61.46V70A0.86,0.86,0,0,1,60.61,70.84Z"/></svg>