<svg id="Calque_1" data-name="Calque 1" xmlns="http://www.w3.org/2000/svg" viewBox="0 0 108 108"><defs><style>.cls-1{fill:#fff;}</style></defs><title>icons</title><path class="cls-1" d="M83.35,82a9.28,9.28,0,0,0,1.55-9.08L83.83,70h6.43V15.77H20.48V70H58L62.1,81.23a9.28,9.28,0,0,0,7,6L71.05,93h16.1Zm-5.85-29.3a6.64,6.64,0,0,0-4,8.5L76,68H22.5V17.79H88.25V68H83.08Z"/><path class="cls-1" d="M58.38,46.78v3.87H69.69a1.21,1.21,0,0,1,1.16,1.16c0,6.59-.83,9.71-4.3,9.71s-4.35-7.81-8.17-8.32v7.47h-6V53.19c-4,.3-4.66,8.34-8.41,8.34-3.47,0-4.11-3.11-4.11-9.71A1.21,1.21,0,0,1,41,50.65H52.33V46.78H40.57a1.22,1.22,0,1,1,0-2.44H52.33V40.46H39.09a1.22,1.22,0,0,1,0-2.45H52.33V34.14H39.9a1.23,1.23,0,0,1,0-2.45H52.33V27.82H42.6a1.23,1.23,0,0,1,0-2.45h9.73V23.23h6v2.14h9.73a1.23,1.23,0,0,1,0,2.45H58.38v3.87H70.84a1.23,1.23,0,1,1,0,2.45H58.38V38H71.66a1.22,1.22,0,0,1,0,2.45H58.38v3.87H70.14a1.22,1.22,0,1,1,0,2.44H58.38Z"/></svg>