<?xml version="1.0" encoding="utf-8"?>
<!-- Generator: Adobe Illustrator 19.0.1, SVG Export Plug-In . SVG Version: 6.00 Build 0)  -->
<svg version="1.1" id="Layer_1" xmlns="http://www.w3.org/2000/svg" xmlns:xlink="http://www.w3.org/1999/xlink" x="0px" y="0px"
	 viewBox="0 0 80.2 81.3" style="enable-background:new 0 0 80.2 81.3;" xml:space="preserve">
<style type="text/css">
	.st0{fill:#2F3640;}
</style>
<g>
	<path class="st0" d="M49.4,74.8H30.8c-2,0-3.5-1.5-3.5-3.5V53.4H9.5c-2,0-3.5-1.5-3.5-3.5V31.4c0-2,1.5-3.5,3.5-3.5h17.8V10.1
		c0-2,1.5-3.5,3.5-3.5h18.5c2,0,3.5,1.5,3.5,3.5v17.8h17.8c2,0,3.5,1.5,3.5,3.5v18.5c0,2-1.5,3.5-3.5,3.5H52.9v17.8
		C52.9,73.1,51.3,74.8,49.4,74.8z M9.5,29.1c-1.3,0-2.2,1-2.2,2.2v18.5c0,1.3,1,2.2,2.2,2.2h19v19c0,1.3,1,2.2,2.2,2.2h18.5
		c1.3,0,2.2-1,2.2-2.2V52.2h19c1.3,0,2.2-1,2.2-2.2V31.4c0-1.3-1-2.2-2.2-2.2H51.6V10.1c0-1.3-1-2.2-2.2-2.2H30.8
		c-1.3,0-2.2,1-2.2,2.2v19H9.5z"/>
</g>
</svg>
