<?xml version="1.0" encoding="utf-8"?>
<!-- Generator: Adobe Illustrator 19.0.1, SVG Export Plug-In . SVG Version: 6.00 Build 0)  -->
<svg version="1.1" id="Layer_1" xmlns="http://www.w3.org/2000/svg" xmlns:xlink="http://www.w3.org/1999/xlink" x="0px" y="0px"
	 viewBox="0 0 80.2 81.3" style="enable-background:new 0 0 80.2 81.3;" xml:space="preserve">
<style type="text/css">
	.st0{fill:#67AFE0;}
	.st1{fill:none;stroke:#838891;stroke-miterlimit:10;}
	.st2{fill:#FFFFFF;}
</style>
<g>
	<g>
		<circle class="st0" cx="40.1" cy="40.7" r="32.7"/>
		<circle class="st1" cx="40.1" cy="40.7" r="17.2"/>
	</g>
	<g>
		<path class="st2" d="M39.7,23.3C33.8,23.5,28,26.6,24.9,32c-4.3,7.3-2.6,16.3,3.6,21.6c0,0,0,0,0,0c0.6,0.5,1.2,1,1.9,1.4
			c0.3,0.2,0.7,0.4,1,0.6c1,0.6,2.1,1,3.1,1.4c0.2,0.1,0.5,0.2,0.7,0.2c0.5,0.1,1,0.3,1.5,0.4c0.5,0.1,1,0.2,1.5,0.2
			c0.2,0,0.4,0,0.6,0c0.2,0,0.3,0,0.5,0c0.1,0,0.2,0,0.4,0c0,0,0.1,0,0.1,0c0.5,0,1,0,1.6,0c0.2,0,0.5,0,0.8-0.1
			c0.2,0,0.3,0,0.5-0.1c0.2,0,0.3,0,0.5-0.1c0.6-0.1,1.1-0.2,1.7-0.4c0.2,0,0.3-0.1,0.5-0.2c0.1,0,0.2-0.1,0.3-0.1
			c0.3-0.1,0.5-0.2,0.8-0.3c0.1,0,0.3-0.1,0.4-0.2c0.1,0,0.2-0.1,0.4-0.2c0.2-0.1,0.5-0.2,0.7-0.3c0,0,0,0,0.1,0
			c0.1-0.1,0.2-0.1,0.4-0.2c0,0,0,0,0.1,0c0.2-0.1,0.4-0.2,0.7-0.4c0.2-0.1,0.5-0.3,0.7-0.4c0.2-0.2,0.5-0.3,0.7-0.5
			c0.2-0.2,0.4-0.3,0.6-0.4c0,0,0,0,0.1-0.1c0.1-0.1,0.2-0.2,0.4-0.3c0.1-0.1,0.2-0.2,0.3-0.2c0.1-0.1,0.2-0.2,0.4-0.3
			c0.2-0.2,0.4-0.4,0.6-0.6c0.2-0.2,0.3-0.4,0.5-0.5c0,0,0.1-0.1,0.1-0.1c0.1-0.1,0.1-0.1,0.2-0.2c0.1-0.2,0.2-0.3,0.4-0.5
			c0,0,0.1-0.1,0.1-0.2c0,0,0-0.1,0.1-0.1c0.5-0.6,0.9-1.2,1.3-1.9c4.9-8.3,2-18.9-6.4-23.7C46,24,42.8,23.3,39.7,23.3L39.7,23.3z
			 M39.7,24.2c3-0.1,6,0.6,8.7,2.2c8,4.5,10.7,14.6,6.1,22.5c-0.3,0.5-0.6,1-1,1.4c-2.9-4.3-7.9-7.1-13.5-7.1s-10.6,2.8-13.5,7.1
			c-3.8-5.1-4.3-12.1-1-17.9C28.7,27.3,34.1,24.3,39.7,24.2L39.7,24.2z M40.1,26.1c-3.9,0-6.3,2.5-6.3,5.5c0,2.1,0.5,4.6,1.5,6.6
			c1,2.1,2.6,3.7,4.8,3.8c0,0,0,0,0,0c2.2-0.1,3.8-1.7,4.8-3.8c1-2,1.5-4.5,1.5-6.6C46.4,28.6,44,26.1,40.1,26.1L40.1,26.1z
			 M40.1,27c3.5,0,5.5,2.1,5.5,4.6c0,1.9-0.5,4.3-1.4,6.2c-0.9,1.9-2.2,3.2-4.1,3.3c0,0,0,0,0,0c-1.8-0.1-3.1-1.4-4.1-3.3
			s-1.4-4.3-1.4-6.2C34.6,29.1,36.6,27,40.1,27L40.1,27z M40.1,44.1c5.4,0,10.2,2.8,13,6.9c-0.8,1-1.7,1.8-2.7,2.6
			c-0.2,0.2-0.4,0.3-0.6,0.4c0,0,0,0,0,0c-0.1,0-0.2,0.1-0.2,0.2c-0.1,0.1-0.3,0.2-0.4,0.3c-0.1,0.1-0.2,0.1-0.3,0.2
			c-0.1,0.1-0.2,0.2-0.4,0.2c-0.1,0.1-0.2,0.1-0.3,0.2c-0.1,0.1-0.2,0.1-0.4,0.2c-0.1,0.1-0.2,0.1-0.3,0.2c-0.1,0-0.2,0.1-0.3,0.2
			c-0.1,0.1-0.2,0.1-0.4,0.2c-0.2,0.1-0.4,0.2-0.6,0.2c0,0-0.1,0-0.2,0.1c-0.1,0-0.2,0.1-0.3,0.1c-0.2,0-0.3,0.1-0.5,0.2
			c-0.1,0-0.2,0-0.2,0.1c-0.2,0-0.3,0.1-0.5,0.1c-0.2,0.1-0.5,0.1-0.8,0.2c0,0,0,0,0,0c0,0-0.1,0-0.1,0c-0.2,0-0.4,0.1-0.7,0.1
			c0,0,0,0,0,0c-0.3,0-0.6,0.1-0.9,0.1c-0.2,0-0.4,0-0.6,0.1c-0.2,0-0.5,0-0.7,0c-0.2,0-0.5,0-0.7,0c-0.2,0-0.5,0-0.7,0
			c-0.2,0-0.5,0-0.7-0.1c-0.2,0-0.5,0-0.7-0.1c-4.1-0.6-7.9-2.6-10.6-5.9C29.9,46.9,34.7,44.1,40.1,44.1L40.1,44.1z"/>
	</g>
</g>
</svg>
