<?xml version="1.0" encoding="utf-8"?>
<!-- Generator: Adobe Illustrator 19.0.1, SVG Export Plug-In . SVG Version: 6.00 Build 0)  -->
<svg version="1.1" id="Layer_1" xmlns="http://www.w3.org/2000/svg" xmlns:xlink="http://www.w3.org/1999/xlink" x="0px" y="0px"
	 viewBox="0 0 80.2 81.3" style="enable-background:new 0 0 80.2 81.3;" xml:space="preserve">
<style type="text/css">
	.st0{fill:#2F3640;}
</style>
<g>
	<g>
		<path class="st0" d="M49.8,63.8H30.4c-4,0-7.2-3.1-7.2-6.8V17.1c0-3.8,3.2-6.8,7.2-6.8h19.4c4,0,7.2,3.1,7.2,6.8V57
			C57,60.8,53.8,63.8,49.8,63.8z M30.4,12.4c-2.8,0-5,2.1-5,4.7V57c0,2.6,2.3,4.7,5,4.7h19.4c2.8,0,5-2.1,5-4.7V17.1
			c0-2.6-2.3-4.7-5-4.7L30.4,12.4z"/>
	</g>
	<g>
		<path class="st0" d="M40.1,72.6c-2.1,0-3.8-1.7-3.8-3.8s1.7-3.8,3.8-3.8c2.1,0,3.8,1.7,3.8,3.8S42.2,72.6,40.1,72.6z M40.1,67.3
			c-0.9,0-1.6,0.7-1.6,1.6c0,0.9,0.7,1.6,1.6,1.6s1.6-0.7,1.6-1.6C41.7,68,41,67.3,40.1,67.3z"/>
	</g>
	<g>
		<path class="st0" d="M52.1,76.5H28.1c-5,0-9-4-9-9V13.9c0-5,4-9,9-9h24.1c5,0,9,4,9,9v53.6C61.1,72.4,57.1,76.5,52.1,76.5z
			 M28.1,7c-3.8,0-6.8,3.1-6.8,6.8v53.6c0,3.8,3.1,6.8,6.8,6.8h24.1c3.8,0,6.8-3.1,6.8-6.8V13.9c0-3.8-3.1-6.8-6.8-6.8L28.1,7z"/>
	</g>
</g>
</svg>
