<svg id="Calque_1" data-name="Calque 1" xmlns="http://www.w3.org/2000/svg" viewBox="0 0 108 108"><defs><style>.cls-1{fill:#fff;}</style></defs><title>icons</title><path class="cls-1" d="M88.45,94.9h-69a3.37,3.37,0,0,1-3.4-3.4v-69a3.37,3.37,0,0,1,3.4-3.4h69.1a3.37,3.37,0,0,1,3.4,3.4V91.6A3.51,3.51,0,0,1,88.45,94.9Zm-69-73.8a1.37,1.37,0,0,0-1.4,1.4V91.6a1.37,1.37,0,0,0,1.4,1.4h69.1a1.37,1.37,0,0,0,1.4-1.4V22.5a1.37,1.37,0,0,0-1.4-1.4H19.45Z"/><rect class="cls-1" x="17.05" y="36.5" width="73.8" height="2"/><path class="cls-1" d="M26.15,27.1a0.94,0.94,0,0,1-1-1v-12a1,1,0,0,1,2,0V26.2A0.92,0.92,0,0,1,26.15,27.1Z"/><path class="cls-1" d="M37.25,27.1a0.94,0.94,0,0,1-1-1v-12a1,1,0,0,1,2,0V26.2A0.92,0.92,0,0,1,37.25,27.1Z"/><path class="cls-1" d="M48.35,27.1a0.94,0.94,0,0,1-1-1v-12a1,1,0,1,1,2,0V26.2A0.92,0.92,0,0,1,48.35,27.1Z"/><path class="cls-1" d="M59.45,27.1a0.94,0.94,0,0,1-1-1v-12a1,1,0,0,1,2,0V26.2A0.92,0.92,0,0,1,59.45,27.1Z"/><path class="cls-1" d="M70.55,27.1a0.94,0.94,0,0,1-1-1v-12a1,1,0,0,1,2,0V26.2A0.92,0.92,0,0,1,70.55,27.1Z"/><path class="cls-1" d="M81.65,27.1a0.94,0.94,0,0,1-1-1v-12a1,1,0,0,1,2,0V26.2A0.92,0.92,0,0,1,81.65,27.1Z"/><path class="cls-1" d="M33.75,72.9l3.8-.5a8,8,0,0,0,2.3,4.7,5.52,5.52,0,0,0,3.9,1.4,6.19,6.19,0,0,0,4.6-1.9,6.65,6.65,0,0,0,1.9-4.7,5.83,5.83,0,0,0-6.1-6.1,10.32,10.32,0,0,0-2.7.4l0.4-3.4h0.6a7.58,7.58,0,0,0,4.4-1.3,4.49,4.49,0,0,0,2-3.9,4.83,4.83,0,0,0-1.4-3.5,5.59,5.59,0,0,0-7.4,0,6.88,6.88,0,0,0-1.9,4.2l-4-.4a9.77,9.77,0,0,1,3.2-6,9.31,9.31,0,0,1,6.2-2.1,10.49,10.49,0,0,1,4.7,1.1,8,8,0,0,1,3.3,3,7.34,7.34,0,0,1,1.1,4,6.71,6.71,0,0,1-1.1,3.7,7,7,0,0,1-3.2,2.6,7,7,0,0,1,4.3,2.7,8,8,0,0,1,1.5,5,9.17,9.17,0,0,1-3,6.9,10.5,10.5,0,0,1-7.6,2.8,9.53,9.53,0,0,1-6.8-2.5A9.4,9.4,0,0,1,33.75,72.9Z"/><path class="cls-1" d="M72.55,81.2h-3.8V56.7a15.21,15.21,0,0,1-3.6,2.6,29.69,29.69,0,0,1-4,2V57.6a21.8,21.8,0,0,0,5.6-3.7,14,14,0,0,0,3.4-4.2h2.5V81.2h-0.1Z"/></svg>