<svg id="Calque_1" data-name="Calque 1" xmlns="http://www.w3.org/2000/svg" viewBox="0 0 108 108"><defs><style>.cls-1{fill:#fff;}</style></defs><title>icons</title><path class="cls-1" d="M90.55,24.32c-4,3.78-5.39,21.29-4,24.61,1.68,4.12,3.37.95,3.37,9V83.48a2.15,2.15,0,0,0,4,0V24.32C93.92,22.9,92.27,22.72,90.55,24.32Z"/><path class="cls-1" d="M22.76,24.8c-0.37,0-.67.93-0.67,2.09V38.34a0.73,0.73,0,0,1-1.35,0V26.89c0-1.15-.3-2.09-0.67-2.09s-0.68.93-.68,2.09V38.34a0.73,0.73,0,0,1-1.35,0V26.89c0-1.15-.3-2.09-0.67-2.09s-0.68.93-.68,2.09V38.34a0.6,0.6,0,0,1-.67.46,0.6,0.6,0,0,1-.67-0.46V26.89c0-1.15-.3-2.09-0.67-2.09S14,25.73,14,26.89v14.8c0,4.22,2.7,4.22,2.7,6.67V83.48a1.81,1.81,0,0,0,2,1.42,1.81,1.81,0,0,0,2-1.42V48.35c0-2.45,2.7-2.45,2.7-6.67V26.89C23.44,25.73,23.14,24.8,22.76,24.8Z"/><path class="cls-1" d="M54,27.24A26.83,26.83,0,1,0,80.79,54.07,26.83,26.83,0,0,0,54,27.24Zm0,48.29A21.46,21.46,0,1,1,75.42,54.07,21.46,21.46,0,0,1,54,75.53Z"/></svg>