<?xml version="1.0" encoding="utf-8"?>
<!-- Generator: Adobe Illustrator 19.0.1, SVG Export Plug-In . SVG Version: 6.00 Build 0)  -->
<svg version="1.1" id="Calque_1" xmlns="http://www.w3.org/2000/svg" xmlns:xlink="http://www.w3.org/1999/xlink" x="0px" y="0px"
	 viewBox="-366 244.3 108 108" style="enable-background:new -366 244.3 108 108;" xml:space="preserve">
<style type="text/css">
	.st0{fill:#E4E6E8;}
	.st1{fill:#FFFFFF;}
</style>
<title>icons</title>
<path class="st0" d="M-67.8,430.8l-44.2-44.2c-0.8-0.8-2.2-0.8-3,0l-44.2,44.2c-0.6,0.6-0.8,1.5-0.5,2.3c0.3,0.8,1.1,1.3,2,1.3h7
	V479c0,1.2,1,2.2,2.2,2.2h70c1.2,0,2.2-1,2.2-2.2v-44.5h7c0.9,0,1.7-0.5,2-1.3C-67,432.4-67.2,431.4-67.8,430.8z"/>
<g>
	<path class="st1" d="M-297.1,253c-17.9,0-32.4,14.5-32.4,32.4c0,6,1.6,11.6,4.5,16.4l-31.2,31.2c-1.6,1.6-1.6,4.1,0,5.7l5.8,5.8
		c1.6,1.6,4.1,1.6,5.7,0l31.2-31.2c4.8,2.9,10.5,4.6,16.6,4.6c17.9,0,32.4-14.5,32.4-32.4C-264.7,267.6-279.3,253-297.1,253z
		 M-297.1,309.9c-13.5,0-24.4-11-24.4-24.4c0-13.5,11-24.4,24.4-24.4c13.5,0,24.4,11,24.4,24.4
		C-272.7,298.9-283.7,309.9-297.1,309.9z"/>
</g>
</svg>
