<svg id="Calque_1" data-name="Calque 1" xmlns="http://www.w3.org/2000/svg" viewBox="0 0 108 108"><defs><style>.cls-1{fill:#fff;}</style></defs><title>icons</title><path class="cls-1" d="M89.36,43.62L61.71,16a1.35,1.35,0,0,0-1.91,0L32.15,43.62a1.35,1.35,0,0,0,1,2.3h4.4V73.79a1.35,1.35,0,0,0,1.35,1.35H82.66A1.35,1.35,0,0,0,84,73.79V45.92h4.4A1.35,1.35,0,0,0,89.36,43.62Z"/><path class="cls-1" d="M56.76,86.52l-3.49-10L43.25,80a1.8,1.8,0,0,0,1.18,3.4l4.24-1.48A12.85,12.85,0,1,1,34,63.54a1.8,1.8,0,1,0-.91-3.48A16.45,16.45,0,1,0,51.9,83.51l1.46,4.19A1.8,1.8,0,1,0,56.76,86.52Z"/></svg>