<?xml version="1.0" encoding="utf-8"?>
<!-- Generator: Adobe Illustrator 19.0.1, SVG Export Plug-In . SVG Version: 6.00 Build 0)  -->
<svg version="1.1" id="Layer_1" xmlns="http://www.w3.org/2000/svg" xmlns:xlink="http://www.w3.org/1999/xlink" x="0px" y="0px"
	 viewBox="0 0 80.2 81.3" style="enable-background:new 0 0 80.2 81.3;" xml:space="preserve">
<style type="text/css">
	.st0{fill:#67AFE0;}
	.st1{fill:none;stroke:#838891;stroke-miterlimit:10;}
	.st2{fill:#FFFFFF;}
</style>
<g>
	<g>
		<circle class="st0" cx="40.1" cy="40.7" r="34.5"/>
		<circle class="st1" cx="40.1" cy="40.7" r="18.2"/>
	</g>
	<g>
		<path class="st2" d="M39.7,22.4c-6.3,0.1-12.3,3.4-15.6,9.1c-4.5,7.6-2.7,17.1,3.7,22.8c0,0,0,0,0,0c0.6,0.5,1.3,1,2,1.5
			c0.3,0.2,0.7,0.5,1.1,0.7c1.1,0.6,2.2,1.1,3.3,1.5c0.2,0.1,0.5,0.2,0.8,0.2c0.5,0.1,1.1,0.3,1.6,0.4c0.5,0.1,1.1,0.2,1.6,0.2
			c0.2,0,0.4,0,0.6,0c0.2,0,0.3,0,0.5,0c0.1,0,0.3,0,0.4,0c0,0,0.1,0,0.1,0c0.6,0,1.1,0,1.7,0c0.3,0,0.5,0,0.8-0.1
			c0.2,0,0.3,0,0.5-0.1c0.2,0,0.3,0,0.5-0.1c0.6-0.1,1.2-0.2,1.7-0.4c0.2,0,0.4-0.1,0.6-0.2c0.1,0,0.2-0.1,0.3-0.1
			c0.3-0.1,0.6-0.2,0.8-0.3c0.1,0,0.3-0.1,0.5-0.2c0.1,0,0.2-0.1,0.4-0.2c0.2-0.1,0.5-0.2,0.7-0.3c0,0,0,0,0.1,0
			c0.1-0.1,0.2-0.1,0.4-0.2c0,0,0,0,0.1,0c0.2-0.1,0.5-0.2,0.7-0.4c0.3-0.1,0.5-0.3,0.8-0.5c0.3-0.2,0.5-0.3,0.7-0.5
			c0.2-0.2,0.4-0.3,0.7-0.5c0,0,0,0,0.1-0.1c0.1-0.1,0.3-0.2,0.4-0.3c0.1-0.1,0.2-0.2,0.3-0.3c0.1-0.1,0.2-0.2,0.4-0.3
			c0.2-0.2,0.4-0.4,0.7-0.6c0.2-0.2,0.4-0.4,0.5-0.5c0,0,0.1-0.1,0.1-0.1c0.1-0.1,0.1-0.1,0.2-0.2c0.1-0.2,0.3-0.3,0.4-0.5
			c0,0,0.1-0.1,0.1-0.2c0,0,0-0.1,0.1-0.1c0.5-0.6,1-1.3,1.4-2c5.1-8.7,2.1-19.9-6.8-24.9C46.3,23.1,43,22.3,39.7,22.4L39.7,22.4z
			 M39.7,23.3c3.1-0.1,6.3,0.7,9.2,2.3c8.4,4.8,11.3,15.4,6.5,23.7c-0.3,0.5-0.7,1-1,1.5c-3.1-4.5-8.3-7.5-14.3-7.5
			s-11.1,3-14.3,7.5c-4-5.4-4.6-12.7-1-18.9C28,26.6,33.8,23.5,39.7,23.3L39.7,23.3z M40.1,25.4c-4.1,0-6.7,2.6-6.7,5.8
			c0,2.2,0.5,4.8,1.5,7c1.1,2.2,2.7,3.9,5.1,4c0,0,0,0,0,0c2.4-0.1,4.1-1.8,5.1-4c1.1-2.2,1.6-4.8,1.6-7
			C46.8,28,44.2,25.4,40.1,25.4L40.1,25.4z M40.1,26.3c3.7,0,5.7,2.2,5.7,4.9c0,2-0.5,4.6-1.5,6.5c-1,2-2.4,3.4-4.3,3.5c0,0,0,0,0,0
			c-1.9-0.1-3.3-1.5-4.3-3.5c-1-2-1.5-4.5-1.5-6.5C34.3,28.4,36.4,26.3,40.1,26.3L40.1,26.3z M40.1,44.3c5.7,0,10.7,2.9,13.6,7.3
			c-0.8,1-1.8,1.9-2.8,2.7c-0.2,0.2-0.4,0.3-0.6,0.5c0,0,0,0,0,0c-0.1,0-0.2,0.1-0.2,0.2c-0.1,0.1-0.3,0.2-0.4,0.3
			c-0.1,0.1-0.2,0.1-0.3,0.2c-0.1,0.1-0.3,0.2-0.4,0.2c-0.1,0.1-0.2,0.1-0.3,0.2c-0.1,0.1-0.3,0.1-0.4,0.2c-0.1,0.1-0.2,0.1-0.4,0.2
			c-0.1,0-0.2,0.1-0.4,0.2c-0.1,0.1-0.3,0.1-0.4,0.2c-0.2,0.1-0.4,0.2-0.6,0.2c0,0-0.1,0-0.2,0.1C46.2,57,46.1,57,46,57
			c-0.2,0-0.3,0.1-0.5,0.2c-0.1,0-0.2,0-0.2,0.1c-0.2,0-0.4,0.1-0.6,0.1c-0.3,0.1-0.5,0.1-0.8,0.2c0,0,0,0,0,0c0,0-0.1,0-0.1,0
			c-0.2,0-0.5,0.1-0.7,0.1c0,0,0,0,0,0c-0.3,0-0.6,0.1-0.9,0.1c-0.2,0-0.4,0-0.6,0.1c-0.2,0-0.5,0-0.8,0c-0.3,0-0.5,0-0.8,0
			c-0.3,0-0.5,0-0.8,0c-0.2,0-0.5,0-0.8-0.1c-0.2,0-0.5,0-0.8-0.1c-4.3-0.6-8.3-2.8-11.1-6.2C29.4,47.2,34.4,44.3,40.1,44.3
			L40.1,44.3z"/>
	</g>
</g>
</svg>
